# xmcd CD database file
#
# Track frame offsets:
#	150
#	30510
#	45647
#	53352
#	105792
#	113542
#	155894
#	161153
#	190423
#
# Disc length: 3227 seconds
#
# Revision: 1
# Processed by: cddbd v1.5.2PL0 Copyright (c) Steve Scherf et al.
# Submitted via: CDex 1.50
#
DISCID=650c9909
DTITLE=Squat - Cycles
DYEAR=1996
DGENRE=Jazz
TTITLE0=Snafu
TTITLE1=Tooch
TTITLE2=Spudgulp
TTITLE3=Joshua
TTITLE4=Ganza
TTITLE5=Petemoss
TTITLE6=Plugdups
TTITLE7=Backroot
TTITLE8=The Waiting
EXTD=YEAR: 1996
EXTT0=
EXTT1=
EXTT2=
EXTT3=
EXTT4=
EXTT5=
EXTT6=
EXTT7=
EXTT8=
PLAYORDER=
